<svg width="495" height="250" viewBox="0 0 495 250" fill="none" xmlns="http://www.w3.org/2000/svg">
<path d="M609.416 15.5664C610.831 19.0884 610.518 23.4549 608.174 28.7595C605.829 34.0682 601.535 40.1087 595.359 46.765C583.015 60.0693 563.477 75.4921 538.155 92.0475C487.54 125.14 414.173 162.529 330.058 196.337C245.942 230.144 167.107 253.929 107.669 265.069C77.9333 270.643 53.1563 273.031 35.0387 271.97C25.9742 271.439 18.6944 270.05 13.3276 267.841C7.96479 265.634 4.71639 262.699 3.30079 259.177C1.8852 255.655 2.19914 251.289 4.54271 245.984C6.88803 240.675 11.1819 234.635 17.3577 227.979C29.7015 214.674 49.2397 199.252 74.5613 182.696C125.176 149.604 198.543 112.215 282.659 78.4071C366.775 44.5992 445.61 20.8145 505.048 9.67417C534.783 4.1009 559.56 1.71253 577.678 2.77371C586.742 3.30464 594.022 4.69337 599.389 6.90234C604.752 9.10966 608 12.0443 609.416 15.5664Z" stroke="url(#paint0_linear_1_5)" stroke-width="4"/>
<path d="M623.757 51.2476C625.173 54.7697 624.859 59.1361 622.515 64.4408C620.17 69.7494 615.876 75.7899 609.7 82.4462C597.356 95.7505 577.818 111.173 552.496 127.729C501.881 160.821 428.514 198.21 344.399 232.018C260.283 265.826 181.448 289.61 122.01 300.751C92.2744 306.324 67.4974 308.712 49.3798 307.651C40.3153 307.12 33.0355 305.732 27.6687 303.523C22.3059 301.315 19.0575 298.381 17.6419 294.859C16.2263 291.336 16.5402 286.97 18.8838 281.665C21.2291 276.357 25.523 270.316 31.6988 263.66C44.0426 250.356 63.5807 234.933 88.9023 218.377C139.517 185.285 212.885 147.896 297 114.088C381.116 80.2804 459.951 56.4958 519.389 45.3554C549.124 39.7822 573.901 37.3938 592.019 38.455C601.083 38.9859 608.363 40.3746 613.73 42.5836C619.093 44.7909 622.341 47.7256 623.757 51.2476Z" stroke="url(#paint1_linear_1_5)" stroke-width="4"/>
<path d="M640.706 93.4166C642.121 96.9386 641.807 101.305 639.464 106.61C637.118 111.918 632.825 117.959 626.649 124.615C614.305 137.919 594.767 153.342 569.445 169.898C518.83 202.99 445.463 240.379 361.347 274.187C277.232 307.995 198.397 331.779 138.959 342.92C109.223 348.493 84.4461 350.881 66.3285 349.82C57.264 349.289 49.9842 347.9 44.6174 345.692C39.2546 343.484 36.0062 340.55 34.5906 337.027C33.175 333.505 33.4889 329.139 35.8325 323.834C38.1778 318.526 42.4717 312.485 48.6475 305.829C60.9913 292.525 80.5295 277.102 105.851 260.546C156.466 227.454 229.833 190.065 313.949 156.257C398.065 122.449 476.899 98.6647 536.338 87.5244C566.073 81.9511 590.85 79.5628 608.968 80.6239C618.032 81.1549 625.312 82.5436 630.679 84.7526C636.042 86.9599 639.29 89.8945 640.706 93.4166Z" stroke="url(#paint2_linear_1_5)" stroke-width="4"/>
<defs>
<linearGradient id="paint0_linear_1_5" x1="281.913" y1="76.5514" x2="330.803" y2="198.192" gradientUnits="userSpaceOnUse">
<stop stop-color="#0C9BAB" stop-opacity="0"/>
<stop offset="1" stop-color="#0C9BAB"/>
</linearGradient>
<linearGradient id="paint1_linear_1_5" x1="296.254" y1="112.233" x2="345.144" y2="233.874" gradientUnits="userSpaceOnUse">
<stop stop-color="#0C9BAB" stop-opacity="0"/>
<stop offset="1" stop-color="#0C9BAB"/>
</linearGradient>
<linearGradient id="paint2_linear_1_5" x1="313.203" y1="154.402" x2="362.093" y2="276.042" gradientUnits="userSpaceOnUse">
<stop stop-color="#0C9BAB" stop-opacity="0"/>
<stop offset="1" stop-color="#0C9BAB"/>
</linearGradient>
</defs>
</svg>
