<svg width="14" height="14" viewBox="0 0 14 14" fill="none" xmlns="http://www.w3.org/2000/svg">
<path d="M7.66658 3.66659C7.66658 3.2984 7.36811 2.99992 6.99992 2.99992C6.63173 2.99992 6.33325 3.2984 6.33325 3.66659V6.99992C6.33325 7.17673 6.40349 7.3463 6.52851 7.47132L8.86185 9.80466C9.1222 10.065 9.54431 10.065 9.80466 9.80466C10.065 9.54431 10.065 9.1222 9.80466 8.86185L7.66658 6.72378V3.66659Z" fill="#A1A1AA"/>
<path fill-rule="evenodd" clip-rule="evenodd" d="M6.99992 0.333252C3.31802 0.333252 0.333252 3.31802 0.333252 6.99992C0.333252 10.6818 3.31802 13.6666 6.99992 13.6666C10.6818 13.6666 13.6666 10.6818 13.6666 6.99992C13.6666 3.31802 10.6818 0.333252 6.99992 0.333252ZM1.66659 6.99992C1.66659 4.0544 4.0544 1.66659 6.99992 1.66659C9.94544 1.66659 12.3333 4.0544 12.3333 6.99992C12.3333 9.94544 9.94544 12.3333 6.99992 12.3333C4.0544 12.3333 1.66659 9.94544 1.66659 6.99992Z" fill="#A1A1AA"/>
</svg>
