<svg width="12" height="14" viewBox="0 0 12 14" fill="none" xmlns="http://www.w3.org/2000/svg">
<path fill-rule="evenodd" clip-rule="evenodd" d="M9.63811 2.02855C7.44477 -0.164792 3.88865 -0.164791 1.6953 2.02855C-0.498044 4.2219 -0.498043 7.77802 1.6953 9.97136L5.1953 13.4714C5.32033 13.5964 5.4899 13.6666 5.66671 13.6666C5.84352 13.6666 6.01309 13.5964 6.13811 13.4714L9.63811 9.97136C11.8315 7.77802 11.8315 4.2219 9.63811 2.02855ZM2.63811 2.97136C4.31076 1.29872 7.02266 1.29872 8.6953 2.97136C10.3679 4.64401 10.3679 7.35591 8.6953 9.02855L5.66671 12.0571L2.63811 9.02855C0.965465 7.35591 0.965464 4.64401 2.63811 2.97136Z" fill="#A1A1AA"/>
<ellipse cx="5.66667" cy="5.99992" rx="1.66667" ry="1.66667" fill="#A1A1AA"/>
</svg>
